<?xml version="1.0" encoding="UTF-8"?>
<svg xmlns="http://www.w3.org/2000/svg" xmlns:xlink="http://www.w3.org/1999/xlink" width="314pt" height="138pt" viewBox="0 0 314 138">
<path fill-rule="nonzero" fill="rgb(100%, 100%, 100%)" fill-opacity="1" d="M 73.125 111.761719 L 73.121094 67.761719 L 72.75 67.761719 L 62.046875 111.761719 L 52.828125 111.761719 L 41.402344 67.761719 L 41.125 67.761719 L 41.125 111.761719 L 23.125 111.761719 L 23.125 29.761719 L 41.125 29.761719 L 56.945312 77.839844 L 57.316406 77.839844 L 73.125 29.761719 L 91.125 29.761719 L 91.125 111.761719 Z M 73.125 111.761719 "/>
<path fill-rule="nonzero" fill="rgb(100%, 100%, 100%)" fill-opacity="1" d="M 287.53125 78.839844 C 285.304688 75.050781 282.148438 71.320312 278.089844 67.675781 L 271.296875 61.683594 C 268.648438 59.304688 266.675781 57.222656 265.363281 55.355469 C 264.03125 53.496094 263.375 51.117188 263.375 48.199219 C 263.375 46.574219 263.796875 45.109375 264.644531 43.773438 C 265.492188 42.445312 266.691406 41.855469 268.246094 41.804688 C 270.746094 41.71875 272.414062 42.664062 273.058594 44.558594 C 273.707031 46.457031 274.089844 49.53125 274.222656 53.785156 L 289.222656 53.785156 C 289.03125 47.277344 287.636719 40.957031 284.820312 36.441406 C 282.011719 31.902344 276.640625 28.496094 268.863281 28.496094 C 261.691406 28.496094 256.0625 30.363281 251.960938 34.082031 C 247.875 37.8125 245.824219 43.128906 245.824219 50.03125 C 245.824219 54.820312 246.753906 58.808594 248.621094 61.949219 C 250.476562 65.082031 253.230469 68.25 256.882812 71.421875 L 263.980469 77.636719 C 267.097656 80.257812 269.382812 82.726562 270.835938 85.015625 C 272.285156 87.324219 273.015625 90.078125 273.015625 93.242188 C 273.015625 97.230469 271.5 99.230469 268.460938 99.230469 C 266.09375 99.230469 264.308594 98.105469 263.113281 95.835938 C 261.945312 93.558594 261.324219 90.230469 261.253906 85.023438 L 246.222656 85.023438 C 246.488281 94.078125 248.046875 102.640625 251.863281 106.796875 C 255.679688 110.945312 261.523438 113.015625 269.359375 113.015625 C 273.625 113.015625 277.378906 112.105469 280.632812 110.28125 C 283.878906 108.464844 286.398438 105.988281 288.1875 102.839844 C 289.972656 99.683594 290.875 96.191406 290.875 92.328125 C 290.875 87.128906 289.753906 82.617188 287.53125 78.839844 "/>
<path fill-rule="nonzero" fill="rgb(100%, 100%, 100%)" fill-opacity="1" d="M 209.753906 89.078125 C 209.753906 92.382812 209.351562 95.042969 208.550781 96.996094 C 207.738281 98.972656 206.042969 99.941406 203.480469 99.941406 C 200.90625 99.941406 199.195312 98.972656 198.339844 96.996094 C 197.507812 95.042969 197.085938 92.382812 197.085938 89.078125 L 197.085938 29.625 L 179.125 29.625 L 179.125 86.34375 C 179.125 92.371094 179.839844 97.324219 181.304688 101.214844 C 182.757812 105.089844 185.273438 108.046875 188.863281 110.03125 C 192.449219 112.03125 197.308594 113.023438 203.480469 113.023438 C 209.632812 113.023438 214.492188 112.03125 218.039062 110.03125 C 221.585938 108.046875 224.105469 105.089844 225.589844 101.214844 C 227.078125 97.324219 227.824219 92.371094 227.824219 86.34375 L 227.824219 29.625 L 209.753906 29.625 Z M 209.753906 89.078125 "/>
<path fill-rule="nonzero" fill="rgb(100%, 100%, 100%)" fill-opacity="1" d="M 134.554688 16.726562 L 134.554688 109.957031 L 160.667969 121.273438 L 145.34375 57 Z M 134.554688 16.726562 "/>
<path fill-rule="nonzero" fill="rgb(100%, 100%, 100%)" fill-opacity="1" d="M 109.125 121.273438 L 134.546875 109.957031 L 134.546875 16.726562 L 124.644531 57 Z M 109.125 121.273438 "/>
</svg>
